<?xml version="1.0" encoding="utf-8"?>
<svg version="1.1" xmlns:xlink="http://www.w3.org/1999/xlink" width="335px" height="85px" xmlns="http://www.w3.org/2000/svg">
  <defs>
    <pattern id="BGPattern" patternUnits="userSpaceOnUse" alignment="0 0" imageRepeat="None" />
    <mask fill="white" id="Clip107">
      <path d="M 0 85  L 0 0  L 335 0  L 335 85  L 0 85  Z " fill-rule="evenodd" />
    </mask>
  </defs>
  <g transform="matrix(1 0 0 1 -34 -746 )">
    <path d="M 0 85  L 0 0  L 335 0  L 335 85  L 0 85  Z " fill-rule="nonzero" fill="rgba(242, 242, 242, 1)" stroke="none" transform="matrix(1 0 0 1 34 746 )" class="fill" />
    <path d="M 0 85  L 0 0  L 335 0  L 335 85  L 0 85  Z " stroke-width="2" stroke-dasharray="0" stroke="rgba(121, 121, 121, 1)" fill="none" transform="matrix(1 0 0 1 34 746 )" class="stroke" mask="url(#Clip107)" />
    <path d="M 333.0899373353781 0.48464276565032455  L 1.9100626646218675 84.51535723434968  M 1.9100626646218675 0.48464276565032455  L 333.0899373353781 84.51535723434968  " stroke-width="1" stroke-dasharray="0" stroke="rgba(121, 121, 121, 1)" fill="none" transform="matrix(1 0 0 1 34 746 )" class="stroke" />
  </g>
</svg>