<?xml version="1.0" encoding="utf-8"?>
<svg version="1.1" xmlns:xlink="http://www.w3.org/1999/xlink" width="214px" height="131px" xmlns="http://www.w3.org/2000/svg">
  <defs>
    <pattern id="BGPattern" patternUnits="userSpaceOnUse" alignment="0 0" imageRepeat="None" />
    <mask fill="white" id="Clip45">
      <path d="M 5 102  C 2.238576250846033 102.34374999999993  0 100.10517374915389  0 97.34374999999993  L 0 5  C 0 2.238576250846033  2.238576250846033 0  5 0  L 196.2903225806452 0  C 199.0517463297992 0  201.2903225806452 2.238576250846033  201 5  L 201 97.34374999999993  C 201.2903225806452 100.10517374915389  199.0517463297992 102.34374999999993  196.2903225806452 102.34374999999993  L 187.49382716049132 102.34374999999994  L 213.41975308641747 130.0864197530841  L 162.8024691358001 102  L 5 102  Z " fill-rule="evenodd" />
    </mask>
  </defs>
  <g transform="matrix(1 0 0 1 -673 -443 )">
    <path d="M 5 102  C 2.238576250846033 102.34374999999993  0 100.10517374915389  0 97.34374999999993  L 0 5  C 0 2.238576250846033  2.238576250846033 0  5 0  L 196.2903225806452 0  C 199.0517463297992 0  201.2903225806452 2.238576250846033  201 5  L 201 97.34374999999993  C 201.2903225806452 100.10517374915389  199.0517463297992 102.34374999999993  196.2903225806452 102.34374999999993  L 187.49382716049132 102.34374999999994  L 213.41975308641747 130.0864197530841  L 162.8024691358001 102  L 5 102  Z " fill-rule="nonzero" fill="rgba(255, 255, 255, 0.6980392156862745)" stroke="none" transform="matrix(1 0 0 1 673 443 )" class="fill" />
    <path d="M 5 102  C 2.238576250846033 102.34374999999993  0 100.10517374915389  0 97.34374999999993  L 0 5  C 0 2.238576250846033  2.238576250846033 0  5 0  L 196.2903225806452 0  C 199.0517463297992 0  201.2903225806452 2.238576250846033  201 5  L 201 97.34374999999993  C 201.2903225806452 100.10517374915389  199.0517463297992 102.34374999999993  196.2903225806452 102.34374999999993  L 187.49382716049132 102.34374999999994  L 213.41975308641747 130.0864197530841  L 162.8024691358001 102  L 5 102  Z " stroke-width="2" stroke-dasharray="0" stroke="rgba(215, 215, 215, 1)" fill="none" transform="matrix(1 0 0 1 673 443 )" class="stroke" mask="url(#Clip45)" />
  </g>
</svg>