<?xml version="1.0" encoding="utf-8"?>
<svg version="1.1" xmlns:xlink="http://www.w3.org/1999/xlink" width="202px" height="148px" xmlns="http://www.w3.org/2000/svg">
  <defs>
    <pattern id="BGPattern" patternUnits="userSpaceOnUse" alignment="0 0" imageRepeat="None" />
    <mask fill="white" id="Clip11">
      <path d="M 0 148  L 0 0  L 202 0  L 202 148  L 0 148  Z " fill-rule="evenodd" />
    </mask>
    <mask fill="white" id="Clip12">
      <path d="M 45.5 53  L 158.5 53  L 158.5 97  L 45.5 97  Z M 0 0  L 202 0  L 202 148  L 0 148  Z " fill-rule="evenodd" />
    </mask>
  </defs>
  <g transform="matrix(1 0 0 1 -90 -347 )">
    <path d="M 0 148  L 0 0  L 202 0  L 202 148  L 0 148  Z " fill-rule="nonzero" fill="rgba(242, 242, 242, 1)" stroke="none" transform="matrix(1 0 0 1 90 347 )" class="fill" />
    <path d="M 0 148  L 0 0  L 202 0  L 202 148  L 0 148  Z " stroke-width="2" stroke-dasharray="0" stroke="rgba(121, 121, 121, 1)" fill="none" transform="matrix(1 0 0 1 90 347 )" class="stroke" mask="url(#Clip11)" />
    <path d="M 201.44950984934584 0.4033294173109692  L 0.5504901506541607 147.59667058268903  M 0.5504901506541607 0.4033294173109692  L 201.44950984934584 147.59667058268903  " stroke-width="1" stroke-dasharray="0" stroke="rgba(121, 121, 121, 1)" fill="none" transform="matrix(1 0 0 1 90 347 )" class="stroke" mask="url(#Clip12)" />
  </g>
</svg>